<?xml version="1.0" encoding="UTF-8" standalone="no"?>
<svg
   xmlns:dc="http://purl.org/dc/elements/1.1/"
   xmlns:cc="http://creativecommons.org/ns#"
   xmlns:rdf="http://www.w3.org/1999/02/22-rdf-syntax-ns#"
   xmlns:svg="http://www.w3.org/2000/svg"
   xmlns="http://www.w3.org/2000/svg"
   xmlns:sodipodi="http://sodipodi.sourceforge.net/DTD/sodipodi-0.dtd"
   xmlns:inkscape="http://www.inkscape.org/namespaces/inkscape"
   xml:space="preserve"
   height="161.70842"
   viewBox="0 0 200.00001 161.70571"
   width="200"
   version="1.1"
   y="0px"
   x="0px"
   enable-background="new 0 0 595.275 311.111"
   id="svg2"
   inkscape:version="0.48.3.1 r9886"
   sodipodi:docname="logo.svg"
   inkscape:export-filename="logo.png"
   inkscape:export-xdpi="90"
   inkscape:export-ydpi="90"><metadata
   id="metadata10"><rdf:RDF><cc:Work
       rdf:about=""><dc:format>image/svg+xml</dc:format><dc:type
         rdf:resource="http://purl.org/dc/dcmitype/StillImage" /><dc:title></dc:title></cc:Work></rdf:RDF></metadata><defs
   id="defs8" /><sodipodi:namedview
   pagecolor="#ffffff"
   bordercolor="#666666"
   borderopacity="1"
   objecttolerance="10"
   gridtolerance="10"
   guidetolerance="10"
   inkscape:pageopacity="0"
   inkscape:pageshadow="2"
   inkscape:window-width="1366"
   inkscape:window-height="744"
   id="namedview6"
   showgrid="false"
   inkscape:zoom="1.168"
   inkscape:cx="22.998634"
   inkscape:cy="128.93672"
   inkscape:window-x="0"
   inkscape:window-y="24"
   inkscape:window-maximized="1"
   inkscape:current-layer="svg2"
   fit-margin-top="0"
   fit-margin-left="0"
   fit-margin-right="0"
   fit-margin-bottom="0" />

<path
   style="fill:#ffffff;fill-opacity:1;stroke:none"
   d="m 118.72578,-0.00204008 c -17.24864,0 -32.460179,8.65770698 -41.567065,21.85637008 -3.22598,-1.49664 -6.811867,-2.335 -10.602127,-2.335 -11.732733,0 -21.592066,8.00234 -24.422753,18.84823 -0.161647,-0.002 -0.321747,0 -0.483827,0 -21.005853,0 -38.4189195,15.38641 -41.56705952,35.50871 C 4.2326685,69.66758 10.130175,67.46034 16.196495,67.4603 c 71.49576,0 127.900355,0.589 182.802455,0.589 C 194.58988,53.73419 182.73973,42.67095 167.9709,39.37729 162.91131,16.83706 142.79307,-0.00204008 118.72571,-0.00204008 z"
   id="path3120"
   inkscape:connector-curvature="0"
   sodipodi:nodetypes="ccscsccccsc" /><g
   transform="matrix(0.66501548,0,0,0.66501548,164.68243,74.99824)"
   style="font-size:72.88079834px;font-style:normal;font-variant:normal;font-weight:500;font-stretch:normal;line-height:125%;letter-spacing:0px;word-spacing:0px;fill:#ffffff;fill-opacity:1;stroke:none;font-family:Century Schoolbook L;-inkscape-font-specification:Century Schoolbook L Medium"
   id="flowRoot3128"><path
     d="m -211.561,17.661741 c -1.36048,-6.364881 -5.15028,-9.5473394 -11.3694,-9.5473841 -4.32429,4.47e-5 -7.7011,1.6520078 -10.13044,4.9558941 -2.42937,3.303966 -3.64405,7.895452 -3.64404,13.774471 -1e-5,5.781897 1.16608,10.300502 3.49828,13.555829 2.38076,3.255351 5.68468,4.883021 9.91179,4.883013 3.40107,8e-6 6.12196,-0.923148 8.16265,-2.76947 2.04063,-1.846302 3.23101,-4.470008 3.57116,-7.871127 l 10.6406,0 c -0.34016,6.073412 -2.55088,10.907834 -6.63216,14.503279 -4.08136,3.546866 -9.42595,5.320297 -16.03377,5.320299 -7.38528,-2e-6 -13.24003,-2.477947 -17.56427,-7.433842 -4.32427,-5.004471 -6.4864,-11.782378 -6.48639,-20.333743 -1e-5,-8.599899 2.18641,-15.4021 6.55927,-20.4066231 4.37283,-5.0044299 10.30046,-7.5066682 17.78291,-7.5067222 6.26772,5.4e-5 11.39366,1.6763107 15.37785,5.0287751 4.03269,3.3525623 6.29199,7.9683412 6.77791,13.8473512 l -10.42195,0"
     style="font-weight:bold;fill:#ffffff;font-family:FreeSans;-inkscape-font-specification:FreeSans Bold"
     id="path4086"
     inkscape:connector-curvature="0" /><path
     d="m -165.96267,53.956379 c -1.79776,0.340109 -3.66837,0.510164 -5.61183,0.510166 -1.94351,-2e-6 -3.83841,-0.170057 -5.6847,-0.510166 -1.79774,-0.340111 -3.66835,-0.947451 -5.61182,-1.82202 -1.89491,-0.874568 -3.54688,-1.992072 -4.95589,-3.352517 -1.40904,-1.360436 -2.57513,-3.15816 -3.49828,-5.393179 -0.87458,-2.283586 -1.31186,-4.858705 -1.31186,-7.725364 l 0,-36.00311471 10.93212,0 0,36.00311471 c -1e-5,6.316346 3.37679,9.474511 10.13043,9.474503 6.75359,8e-6 10.1304,-3.158157 10.13044,-9.474503 l 0,-36.00311471 10.93211,0 0,36.00311471 c -4e-5,2.866659 -0.46162,5.441778 -1.38473,7.725364 -0.87462,2.235019 -2.01641,4.032743 -3.4254,5.393179 -1.40907,1.360445 -3.08532,2.477949 -5.02877,3.352517 -1.89494,0.874569 -3.76554,1.481909 -5.61182,1.82202"
     style="font-weight:bold;fill:#ffffff;font-family:FreeSans;-inkscape-font-specification:FreeSans Bold"
     id="path4088"
     inkscape:connector-curvature="0" /><path
     d="m -101.26958,15.839722 -10.20331,0 c -0.38873,-5.538899 -4.10565,-8.3083662 -11.15076,-8.3084115 -2.81808,4.53e-5 -5.05309,0.6073846 -6.70504,1.82202 -1.65198,1.1661355 -2.47796,2.7452175 -2.47794,4.7372515 -2e-5,1.943525 0.7045,3.40114 2.11354,4.372848 1.40901,0.92319 4.05701,1.773466 7.94401,2.550828 l 8.30841,1.603378 c 4.90727,0.971773 8.47842,2.623736 10.71347,4.955894 2.23497,2.283621 3.352475,5.514667 3.352521,9.693146 -4.6e-5,5.393189 -1.919241,9.620272 -5.757581,12.681259 -3.83843,3.012406 -9.18301,4.518608 -16.03378,4.51861 -6.80222,-2e-6 -12.09822,-1.506204 -15.88801,-4.51861 -3.74122,-3.0124 -5.78188,-7.36095 -6.12199,-13.045663 l 10.6406,0 c 0.19433,2.866658 1.31184,5.05308 3.35251,6.559272 2.04065,1.506211 4.90729,2.259312 8.59994,2.259305 3.3039,7e-6 5.90331,-0.631626 7.79824,-1.894901 1.94346,-1.263257 2.9152,-3.012394 2.91524,-5.247417 -4e-5,-2.137821 -0.75314,-3.789784 -2.25931,-4.955895 -1.50623,-1.166072 -4.08135,-2.089228 -7.72536,-2.76947 l -7.43384,-1.457616 c -5.3932,-1.020307 -9.23158,-2.623683 -11.51517,-4.810133 -2.2836,-2.186393 -3.4254,-5.344558 -3.4254,-9.474503 0,-5.1987879 1.74914,-9.2072278 5.24742,-12.0253322 3.54685,-2.86659215 8.50274,-4.2999131 14.86768,-4.2999671 1.84629,5.4e-5 3.61972,0.1215219 5.3203,0.364404 1.74911,0.24298939 3.59542,0.75315447 5.53894,1.53049676 1.94345,0.72885934 3.61971,1.70060234 5.02878,2.91523194 1.40898,1.1661408 2.57508,2.8181039 3.49827,4.9558943 0.9717,2.0892913 1.45758,4.5186493 1.45762,7.2880803"
     style="font-weight:bold;fill:#ffffff;font-family:FreeSans;-inkscape-font-specification:FreeSans Bold"
     id="path4090"
     inkscape:connector-curvature="0" /><path
     d="m -71.613927,8.7702841 0,44.0200019 -10.93212,0 0,-44.0200019 -16.106656,0 0,-9.11009981 42.562386,0 0,9.11009981 -15.52361,0"
     style="font-weight:bold;fill:#ffffff;font-family:FreeSans;-inkscape-font-specification:FreeSans Bold"
     id="path4092"
     inkscape:connector-curvature="0" /><path
     d="m -48.054062,46.668299 c -4.664377,-5.198819 -6.99656,-11.879552 -6.996557,-20.042219 -3e-6,-8.162615 2.33218,-14.843349 6.996557,-20.0422199 4.712943,-5.1987788 10.883512,-7.7981914 18.511723,-7.7982454 7.676741,5.4e-5 13.871603,2.5994666 18.584603,7.7982454 4.7129067,5.1502839 7.0693835,11.9524849 7.0694375,20.4066239 -5.4e-5,7.871144 -2.3322373,14.430409 -6.9965565,19.677815 -4.615826,5.198831 -10.810688,7.798244 -18.584604,7.798246 -7.725385,-2e-6 -13.920247,-2.599415 -18.584603,-7.798246 M -29.469459,8.1143569 c -4.421459,4.47e-5 -7.968321,1.7005949 -10.640596,5.1016561 -2.672311,3.352553 -4.008458,7.822571 -4.008444,13.410067 -1.4e-5,5.587548 1.336133,10.08186 4.008444,13.482947 2.672275,3.352526 6.219137,5.028783 10.640596,5.028775 4.372815,8e-6 7.895384,-1.676249 10.567716,-5.028775 2.720841,-3.3525 4.081282,-7.749637 4.081325,-13.191424 -4.3e-5,-5.733258 -1.33619,-10.30045 -4.008444,-13.70159 -2.623745,-3.4010612 -6.170607,-5.1016114 -10.640597,-5.1016561"
     style="font-weight:bold;fill:#ffffff;font-family:FreeSans;-inkscape-font-specification:FreeSans Bold"
     id="path4094"
     inkscape:connector-curvature="0" /><path
     d="m 12.294651,11.393993 0,41.396293 -10.9321196,0 0,-53.13010171 16.3252986,0 9.620266,42.27086271 9.328742,-42.27086271 16.47106,0 0,53.13010171 -10.93212,0 0,-41.396293 -9.401623,41.396293 -10.932119,0 -9.547385,-41.396293"
     style="font-weight:bold;fill:#ffffff;font-family:FreeSans;-inkscape-font-specification:FreeSans Bold"
     id="path4096"
     inkscape:connector-curvature="0" /><path
     d="m -246.56808,96.625142 c 0,-2.969183 0.23754,-5.908705 0.71262,-8.818576 0.53445,-2.90979 1.51429,-5.938389 2.93952,-9.085806 1.42522,-3.147318 3.17705,-5.878996 5.25552,-8.195041 2.13782,-2.375314 4.98826,-4.334996 8.55134,-5.879051 3.62242,-1.543928 7.69025,-2.315924 12.20349,-2.31599 14.13343,6.6e-5 22.47692,7.066797 25.0305,21.200214 l -8.46227,0 c -0.9502,-4.63193 -2.8208,-8.105911 -5.61182,-10.421954 -2.79111,-2.315932 -6.76985,-3.473926 -11.93625,-3.473984 -6.29477,5.8e-5 -11.28305,2.405122 -14.96486,7.215199 -3.62246,4.810179 -5.43368,11.372144 -5.43367,19.685913 -1e-5,8.135684 1.90029,14.608564 5.7009,19.418684 3.80058,4.75076 8.93732,7.12613 15.41024,7.12612 5.34455,10e-6 9.44207,-1.4846 12.29256,-4.45382 2.8504,-3.02859 4.78039,-7.69026 5.78997,-13.98502 l 8.55135,0 c -1.95974,17.16208 -10.86739,25.74312 -26.72296,25.74312 -4.45385,0 -8.46229,-0.74231 -12.02533,-2.22692 -3.50369,-1.54399 -6.32445,-3.47398 -8.46227,-5.78997 -2.07846,-2.31598 -3.8303,-5.01797 -5.25552,-8.10596 -1.36584,-3.14736 -2.31599,-6.14626 -2.85044,-8.99673 -0.47508,-2.85043 -0.71262,-5.730565 -0.71262,-8.640428"
     style="font-size:89.07653046px;font-weight:normal;fill:#ffffff;font-family:FreeSans;-inkscape-font-specification:FreeSans"
     id="path4098"
     inkscape:connector-curvature="0" /><path
     d="m -171.0618,63.399597 0,57.632513 32.06755,0 0,7.30428 -40.35167,0 0,-64.936793 8.28412,0"
     style="font-size:89.07653046px;font-weight:normal;fill:#ffffff;font-family:FreeSans;-inkscape-font-specification:FreeSans"
     id="path4100"
     inkscape:connector-curvature="0" /><path
     d="m -74.273188,96.892372 c -6.6e-5,9.620288 -2.850512,17.607478 -8.551347,23.961588 -5.700949,6.35413 -13.302139,9.53119 -22.803595,9.53119 -9.38275,0 -16.95425,-3.11768 -22.71451,-9.35304 -5.76029,-6.29473 -8.64043,-14.51945 -8.64043,-24.674197 0,-10.154682 2.88014,-18.349715 8.64043,-24.585123 5.76026,-6.294678 13.30207,-9.442046 22.62544,-9.442112 9.501449,6.6e-5 17.102639,3.147434 22.803589,9.442112 5.760219,6.294792 8.640357,14.667978 8.640423,25.119582 M -105.7172,69.634954 c -6.88862,5.8e-5 -12.44105,2.464507 -16.65731,7.393352 -4.21631,4.869563 -6.32445,11.312759 -6.32444,19.329607 -1e-5,8.016907 2.10813,14.489797 6.32444,19.418687 4.27565,4.86952 9.85777,7.30428 16.74638,7.30427 6.888547,10e-6 12.440978,-2.43475 16.657315,-7.30427 4.275618,-4.8695 6.413452,-11.22362 6.41351,-19.062381 -5.8e-5,-8.195001 -2.1082,-14.756966 -6.324434,-19.685913 -4.216336,-4.928845 -9.828152,-7.393294 -16.835461,-7.393352"
     style="font-size:89.07653046px;font-weight:normal;fill:#ffffff;font-family:FreeSans;-inkscape-font-specification:FreeSans"
     id="path4102"
     inkscape:connector-curvature="0" /><path
     d="m -21.954633,63.399597 8.284117,0 0,45.607183 c -5.7e-5,6.53229 -2.286353,11.72842 -6.858893,15.58839 -4.513257,3.85999 -10.570455,5.78998 -18.171612,5.78998 -7.719991,0 -13.806881,-1.9003 -18.260689,-5.7009 -4.394452,-3.85998 -6.59167,-9.08579 -6.591663,-15.67747 l 0,-45.607183 8.284117,0 0,45.607183 c -1.5e-5,4.69138 1.484592,8.22474 4.453827,10.60011 3.028579,2.31599 7.066711,3.47399 12.114408,3.47398 5.225786,10e-6 9.323302,-1.24706 12.292561,-3.74121 2.96917,-2.49413 4.453778,-5.93842 4.453827,-10.33288 l 0,-45.607183"
     style="font-size:89.07653046px;font-weight:normal;fill:#ffffff;font-family:FreeSans;-inkscape-font-specification:FreeSans"
     id="path4104"
     inkscape:connector-curvature="0" /><path
     d="m 1.1746374,128.33639 0,-64.936793 25.0305046,0 c 8.254384,6.5e-5 14.727272,2.880203 19.418684,8.640423 4.691307,5.760333 7.036987,13.688136 7.037046,23.783434 -5.9e-5,10.095366 -2.375431,18.052856 -7.126122,23.872506 -4.691412,5.76029 -11.134608,8.64043 -19.329608,8.64043 l -25.0305046,0 m 8.2841173,-7.30428 15.3211633,0 c 6.413472,1e-5 11.282984,-2.13783 14.608551,-6.41351 3.325474,-4.27565 4.988235,-10.511 4.988286,-18.70607 -5.1e-5,-8.254384 -1.662812,-14.519427 -4.988286,-18.795148 -3.325567,-4.275618 -8.195079,-6.413452 -14.608551,-6.41351 l -15.3211633,0 0,50.328238"
     style="font-size:89.07653046px;font-weight:normal;fill:#ffffff;font-family:FreeSans;-inkscape-font-specification:FreeSans"
     id="path4106"
     inkscape:connector-curvature="0" /></g></svg>