<?xml version="1.0" encoding="UTF-8" standalone="no"?>
<svg
   xmlns:dc="http://purl.org/dc/elements/1.1/"
   xmlns:cc="http://creativecommons.org/ns#"
   xmlns:rdf="http://www.w3.org/1999/02/22-rdf-syntax-ns#"
   xmlns:svg="http://www.w3.org/2000/svg"
   xmlns="http://www.w3.org/2000/svg"
   xmlns:sodipodi="http://sodipodi.sourceforge.net/DTD/sodipodi-0.dtd"
   xmlns:inkscape="http://www.inkscape.org/namespaces/inkscape"
   xml:space="preserve"
   height="20.127111"
   viewBox="0 0 200.00356 20.127111"
   width="200"
   version="1.1"
   y="0px"
   x="0px"
   enable-background="new 0 0 595.275 311.111"
   id="svg2987"
   inkscape:version="0.48.3.1 r9886"
   sodipodi:docname="logo-wide.svg"
   inkscape:export-filename="logo-wide.png"
   inkscape:export-xdpi="90"
   inkscape:export-ydpi="90"><metadata
     id="metadata3013"><rdf:RDF><cc:Work
         rdf:about=""><dc:format>image/svg+xml</dc:format><dc:type
           rdf:resource="http://purl.org/dc/dcmitype/StillImage" /><dc:title></dc:title></cc:Work></rdf:RDF></metadata><defs
     id="defs3011" /><sodipodi:namedview
     pagecolor="#ffffff"
     bordercolor="#666666"
     borderopacity="1"
     objecttolerance="10"
     gridtolerance="10"
     guidetolerance="10"
     inkscape:pageopacity="0"
     inkscape:pageshadow="2"
     inkscape:window-width="1366"
     inkscape:window-height="744"
     id="namedview3009"
     showgrid="false"
     fit-margin-top="0"
     fit-margin-left="0"
     fit-margin-right="0"
     fit-margin-bottom="0"
     inkscape:zoom="1.9819453"
     inkscape:cx="278.66146"
     inkscape:cy="-17.341928"
     inkscape:window-x="0"
     inkscape:window-y="24"
     inkscape:window-maximized="1"
     inkscape:current-layer="svg2987" /><g
     transform="matrix(0.65862139,0,0,0.65862139,164.05189,4.2272593)"
     style="font-size:40px;font-style:normal;font-variant:normal;font-weight:500;font-stretch:normal;line-height:125%;letter-spacing:0px;word-spacing:0px;fill:#ffffff;fill-opacity:1;stroke:none;font-family:Century Schoolbook L;-inkscape-font-specification:Century Schoolbook L Medium"
     id="flowRoot3033"><path
       d="m -229.28375,3.941223 c -0.74669,-3.49331054 -2.82669,-5.2399755 -6.24,-5.24 -2.37335,2.45e-5 -4.22668,0.9066903 -5.56,2.72 -1.33334,1.8133533 -2.00001,4.3333508 -2,7.56 -1e-5,3.173344 0.63999,5.653342 1.92,7.44 1.30666,1.786672 3.11999,2.680004 5.44,2.68 1.86665,4e-6 3.35998,-0.506662 4.48,-1.52 1.11998,-1.013327 1.77331,-2.453325 1.96,-4.32 l 5.84,0 c -0.18669,3.33334 -1.40003,5.986671 -3.64,7.96 -2.24002,1.946667 -5.17335,2.919999 -8.8,2.92 -4.05334,-1e-6 -7.26667,-1.36 -9.64,-4.08 -2.37334,-2.746661 -3.56,-6.466657 -3.56,-11.16 0,-4.7199809 1.2,-8.45331054 3.6,-11.2 2.39999,-2.7466384 5.65332,-4.1199703 9.76,-4.12 3.43998,2.97e-5 6.25331,0.9200287 8.44,2.76 2.21331,1.8400251 3.45331,4.37335586 3.72,7.6 l -5.72,0"
       style="font-weight:bold;fill:#ffffff;font-family:FreeSans;-inkscape-font-specification:FreeSans Bold"
       id="path4109"
       inkscape:connector-curvature="0" /><path
       d="m -204.2575,23.861223 c -0.98668,0.186666 -2.01335,0.279999 -3.08,0.28 -1.06668,-1e-6 -2.10668,-0.09333 -3.12,-0.28 -0.98668,-0.186667 -2.01334,-0.52 -3.08,-1 -1.04001,-0.479999 -1.94667,-1.093332 -2.72,-1.84 -0.77334,-0.746664 -1.41334,-1.733329 -1.92,-2.96 -0.48,-1.253327 -0.72,-2.666659 -0.72,-4.24 l 0,-19.76 6,0 0,19.76 c -1e-5,3.466673 1.85332,5.200004 5.56,5.2 3.70665,4e-6 5.55998,-1.733327 5.56,-5.2 l 0,-19.76 6,0 0,19.76 c -3e-5,1.573341 -0.25336,2.986673 -0.76,4.24 -0.48002,1.226671 -1.10669,2.213336 -1.88,2.96 -0.77336,0.746668 -1.69336,1.360001 -2.76,1.84 -1.04002,0.48 -2.06669,0.813333 -3.08,1"
       style="font-weight:bold;fill:#ffffff;font-family:FreeSans;-inkscape-font-specification:FreeSans Bold"
       id="path4111"
       inkscape:connector-curvature="0" /><path
       d="m -168.75125,2.941223 -5.6,0 c -0.21335,-3.03997666 -2.25335,-4.5599751 -6.12,-4.56 -1.54668,2.49e-5 -2.77334,0.3333579 -3.68,1.00000002 -0.90667,0.6400232 -1.36001,1.506689 -1.36,2.59999998 -1e-5,1.0666869 0.38666,1.8666861 1.16,2.4 0.77332,0.506685 2.22666,0.9733512 4.36,1.4 l 4.56,0.88 c 2.69331,0.5333494 4.65331,1.4400151 5.88,2.72 1.22664,1.253346 1.83997,3.026678 1.84,5.32 -3e-5,2.960006 -1.05336,5.280003 -3.16,6.96 -2.10669,1.653333 -5.04002,2.479999 -8.8,2.48 -3.73334,-1e-6 -6.64001,-0.826667 -8.72,-2.48 -2.05334,-1.65333 -3.17333,-4.039994 -3.36,-7.16 l 5.84,0 c 0.10666,1.573341 0.71999,2.773339 1.84,3.6 1.11999,0.826671 2.69332,1.240004 4.72,1.24 1.81332,4e-6 3.23998,-0.346662 4.28,-1.04 1.06665,-0.693328 1.59998,-1.653327 1.6,-2.88 -2e-5,-1.173324 -0.41335,-2.07999 -1.24,-2.72 -0.82668,-0.639989 -2.24002,-1.146655 -4.24,-1.52 l -4.08,-0.8 c -2.96001,-0.5599866 -5.06667,-1.4399857 -6.32,-2.64 -1.25334,-1.1999833 -1.88,-2.9333149 -1.88,-5.2 0,-2.85330978 0.96,-5.0533076 2.88,-6.6 1.94666,-1.5733045 4.66666,-2.3599703 8.16,-2.36 1.01332,2.97e-5 1.98665,0.066696 2.92,0.2 0.95998,0.1333627 1.97332,0.4133624 3.04,0.84 1.06665,0.4000282 1.98665,0.933361 2.76,1.6 0.77331,0.6400264 1.41331,1.5466921 1.92,2.72 0.53331,1.14668982 0.79998,2.4800218 0.8,4"
       style="font-weight:bold;fill:#ffffff;font-family:FreeSans;-inkscape-font-specification:FreeSans Bold"
       id="path4113"
       inkscape:connector-curvature="0" /><path
       d="m -152.475,-0.93877698 0,24.15999998 -6,0 0,-24.15999998 -8.84,0 0,-5.00000002 23.36,0 0,5.00000002 -8.52,0"
       style="font-weight:bold;fill:#ffffff;font-family:FreeSans;-inkscape-font-specification:FreeSans Bold"
       id="path4115"
       inkscape:connector-curvature="0" /><path
       d="m -139.54437,19.861223 c -2.56001,-2.853327 -3.84001,-6.51999 -3.84,-11 -1e-5,-4.4799811 1.27999,-8.14664414 3.84,-11 2.58665,-2.8533051 5.97332,-4.2799703 10.16,-4.28 4.21331,2.97e-5 7.61331,1.4266949 10.19999,4.28 2.58664,2.82668922 3.87998,6.5600188 3.88001,11.2 -3e-5,4.32001 -1.28003,7.920006 -3.84,10.8 -2.53336,2.853334 -5.93336,4.279999 -10.20001,4.28 -4.24001,-1e-6 -7.64,-1.426666 -10.19999,-4.28 m 10.19999,-21.16 c -2.42667,2.45e-5 -4.37334,0.93335694 -5.83999,2.8 -1.46668,1.8400199 -2.20001,4.2933508 -2.2,7.36 -1e-5,3.066678 0.73332,5.533342 2.2,7.4 1.46665,1.840005 3.41332,2.760004 5.83999,2.76 2.39999,4e-6 4.33332,-0.919995 5.8,-2.76 1.49332,-1.839991 2.23998,-4.253322 2.24001,-7.24 -3e-5,-3.1466493 -0.73336,-5.6533135 -2.2,-7.52 -1.44003,-1.86664306 -3.38669,-2.7999755 -5.84001,-2.8"
       style="font-weight:bold;fill:#ffffff;font-family:FreeSans;-inkscape-font-specification:FreeSans Bold"
       id="path4117"
       inkscape:connector-curvature="0" /><path
       d="m -106.4225,0.50122302 0,22.71999998 -6,0 0,-29.16 8.96,0 5.28,23.2 5.12,-23.2 9.04,0 0,29.16 -6,0 0,-22.71999998 -5.16,22.71999998 -6,0 -5.24,-22.71999998"
       style="font-weight:bold;fill:#ffffff;font-family:FreeSans;-inkscape-font-specification:FreeSans Bold"
       id="path4119"
       inkscape:connector-curvature="0" /><path
       d="m -79.783125,8.981223 c -2e-6,-1.3333177 0.106665,-2.6533164 0.32,-3.96 0.239998,-1.3066471 0.679997,-2.6666458 1.32,-4.07999998 0.639996,-1.41330964 1.426662,-2.63997512 2.36,-3.68000002 0.959993,-1.0666396 2.239992,-1.9466387 3.84,-2.64 1.626655,-0.693304 3.45332,-1.0399703 5.48,-1.04 6.346645,2.97e-5 10.093308,3.1733598 11.24,9.52 l -3.8,0 c -0.426689,-2.0799778 -1.266688,-3.63997622 -2.52,-4.68 -1.253352,-1.0399741 -3.040017,-1.5599736 -5.36,-1.56 -2.826679,2.64e-5 -5.066676,1.0800253 -6.72,3.24000002 -1.626673,2.16002098 -2.440006,5.10668468 -2.44,8.83999998 -6e-6,3.653344 0.853327,6.560008 2.56,8.72 1.706657,2.133337 4.013321,3.200002 6.92,3.2 2.399982,2e-6 4.239981,-0.666664 5.52,-2 1.279978,-1.359994 2.146644,-3.453325 2.6,-6.28 l 3.84,0 c -0.880026,7.70667 -4.880022,11.559999 -12,11.56 -2.000013,-1e-6 -3.800011,-0.333334 -5.4,-1 -1.573341,-0.693333 -2.840007,-1.559998 -3.8,-2.6 -0.933338,-1.039996 -1.720004,-2.253328 -2.36,-3.64 -0.613336,-1.413326 -1.040002,-2.759991 -1.28,-4.04 -0.213335,-1.279988 -0.320002,-2.57332 -0.32,-3.88"
       style="font-weight:normal;fill:#ffffff;-inkscape-font-specification:FreeSans"
       id="path4121"
       inkscape:connector-curvature="0" /><path
       d="m -45.876875,-5.938777 0,25.88 14.4,0 0,3.28 -18.12,0 0,-29.16 3.72,0"
       style="font-weight:normal;fill:#ffffff;-inkscape-font-specification:FreeSans"
       id="path4123"
       inkscape:connector-curvature="0" /><path
       d="m -2.41375,9.101223 c -2.97e-5,4.32001 -1.2800284,7.906673 -3.84,10.76 -2.5600233,2.853334 -5.973353,4.279999 -10.24,4.28 -4.213345,-1e-6 -7.613341,-1.399999 -10.2,-4.2 -2.586669,-2.826661 -3.880002,-6.51999 -3.88,-11.08 -2e-6,-4.5599811 1.293331,-8.23997738 3.88,-11.04 2.586659,-2.8266384 5.973322,-4.2399703 10.16,-4.24 4.266647,2.97e-5 7.6799768,1.4133616 10.24,4.24 2.5866383,2.82668926 3.8799703,6.5866855 3.88,11.28 m -14.12,-12.24 c -3.093346,2.64e-5 -5.586677,1.1066919 -7.48,3.32000002 -1.89334,2.18668748 -2.840005,5.08001798 -2.84,8.67999998 -5e-6,3.600011 0.94666,6.506675 2.84,8.72 1.91999,2.18667 4.426654,3.280002 7.52,3.28 3.093315,2e-6 5.586645,-1.09333 7.48,-3.28 1.919975,-2.186659 2.879974,-5.039989 2.88,-8.56 -2.6e-5,-3.6799821 -0.9466917,-6.6266458 -2.84,-8.83999998 -1.893355,-2.21330812 -4.413352,-3.31997362 -7.56,-3.32000002"
       style="font-weight:normal;fill:#ffffff;-inkscape-font-specification:FreeSans"
       id="path4125"
       inkscape:connector-curvature="0" /><path
       d="m 21.08,-5.938777 3.72,0 0,20.48 c -2.6e-5,2.933339 -1.026691,5.26667 -3.08,7 -2.026687,1.733333 -4.746685,2.599999 -8.16,2.6 -3.466678,-1e-6 -6.2000084,-0.853333 -8.2,-2.56 -1.9733377,-1.73333 -2.9600034,-4.079994 -2.96,-7.04 l 0,-20.48 3.72,0 0,20.48 c -7.1e-6,2.106673 0.6666589,3.693338 2,4.76 1.3599895,1.040003 3.173321,1.560002 5.44,1.56 2.34665,2e-6 4.186648,-0.559997 5.52,-1.68 1.333312,-1.119995 1.999978,-2.66666 2,-4.64 l 0,-20.48"
       style="font-weight:normal;fill:#ffffff;-inkscape-font-specification:FreeSans"
       id="path4127"
       inkscape:connector-curvature="0" /><path
       d="m 31.46625,23.221223 0,-29.16 11.24,0 c 3.706648,2.92e-5 6.613312,1.2933612 8.72,3.88 2.106641,2.58668938 3.159973,6.1466858 3.16,10.68 -2.7e-5,4.533343 -1.066692,8.106673 -3.2,10.72 -2.106688,2.586668 -5.000018,3.88 -8.68,3.88 l -11.24,0 m 3.72,-3.28 6.88,0 c 2.879983,3e-6 5.066647,-0.959996 6.56,-2.88 1.493311,-1.919992 2.239977,-4.719989 2.24,-8.4 -2.3e-5,-3.7066484 -0.746689,-6.5199789 -2.24,-8.43999998 -1.493353,-1.91997512 -3.680017,-2.87997412 -6.56,-2.88000002 l -6.88,0 0,22.6"
       style="font-weight:normal;fill:#ffffff;-inkscape-font-specification:FreeSans"
       id="path4129"
       inkscape:connector-curvature="0" /></g></svg>